<?xml version="1.0" encoding="iso-8859-1"?>
<!-- Uploaded to: SVG Repo, www.svgrepo.com, Generator: SVG Repo Mixer Tools -->
<svg height="800px" width="800px" version="1.1" id="Layer_1" xmlns="http://www.w3.org/2000/svg" xmlns:xlink="http://www.w3.org/1999/xlink" 
	 viewBox="0 0 512 512" xml:space="preserve">
<g>
	<path style="fill:#BDC3C7;" d="M351.103,472.276H160.895c-1.977,0-2.745-2.719-1.095-3.858l15.925-11.238
		c17.196-12.129,25.318-34.348,20.303-55.526h119.949v0.018c-5.014,21.177,3.116,43.405,20.312,55.526l15.916,11.22
		C353.857,469.566,353.08,472.276,351.103,472.276"/>
	<path style="fill:#556080;" d="M512,331.034H0V44.12c0-17.055,13.824-30.879,30.888-30.879h450.233
		C498.176,13.241,512,27.065,512,44.12V331.034z"/>
	<g>
		<path style="fill:#ECF0F1;" d="M357.517,498.759H154.483c-7.283,0-13.241-5.959-13.241-13.241s5.959-13.241,13.241-13.241h203.034
			c7.283,0,13.241,5.959,13.241,13.241S364.8,498.759,357.517,498.759"/>
		<path style="fill:#ECF0F1;" d="M0,370.776c0,17.055,13.824,30.879,30.888,30.879h450.233c17.055,0,30.879-13.824,30.879-30.879
			v-39.742H0V370.776z"/>
	</g>
	<polygon style="fill:#C03A2B;" points="52.966,128 459.034,128 459.034,75.034 52.966,75.034 	"/>
	<path style="fill:#13A085;" d="M97.103,189.793H52.966c-4.873,0-8.828-3.946-8.828-8.828s3.955-8.828,8.828-8.828h44.138
		c4.873,0,8.828,3.946,8.828,8.828S101.976,189.793,97.103,189.793"/>
	<path style="fill:#4482C3;" d="M229.517,189.793h-61.793c-4.873,0-8.828-3.946-8.828-8.828s3.955-8.828,8.828-8.828h61.793
		c4.873,0,8.828,3.946,8.828,8.828S234.39,189.793,229.517,189.793"/>
	<g>
		<path style="fill:#F0C419;" d="M132.414,189.793c-2.383,0-4.59-0.892-6.268-2.56c-1.677-1.677-2.56-3.884-2.56-6.268
			c0-2.295,0.971-4.599,2.56-6.268c3.266-3.266,9.269-3.266,12.535,0c1.589,1.668,2.56,3.972,2.56,6.268
			c0,2.383-0.883,4.59-2.56,6.268C137.004,188.902,134.797,189.793,132.414,189.793"/>
		<path style="fill:#F0C419;" d="M264.828,189.793c-2.383,0-4.59-0.892-6.268-2.56c-0.794-0.892-1.412-1.854-1.854-2.913
			c-0.441-1.059-0.706-2.207-0.706-3.354c0-2.295,0.971-4.599,2.56-6.268c3.266-3.266,9.269-3.266,12.535,0
			c1.589,1.668,2.56,3.972,2.56,6.268c0,2.383-0.883,4.59-2.56,6.268C269.418,188.902,267.211,189.793,264.828,189.793"/>
	</g>
	<path style="fill:#4482C3;" d="M282.483,233.931h-44.138c-4.873,0-8.828-3.946-8.828-8.828c0-4.882,3.955-8.828,8.828-8.828h44.138
		c4.873,0,8.828,3.946,8.828,8.828C291.31,229.985,287.356,233.931,282.483,233.931"/>
	<path style="fill:#C03A2B;" d="M167.724,233.931h-61.793c-4.873,0-8.828-3.946-8.828-8.828c0-4.882,3.955-8.828,8.828-8.828h61.793
		c4.873,0,8.828,3.946,8.828,8.828C176.552,229.985,172.597,233.931,167.724,233.931"/>
	<g>
		<path style="fill:#13A085;" d="M203.034,233.931c-2.383,0-4.59-0.892-6.268-2.56c-0.794-0.892-1.412-1.854-1.854-2.913
			c-0.441-1.059-0.706-2.207-0.706-3.354c0-1.148,0.265-2.295,0.706-3.354c0.441-1.059,1.059-2.03,1.854-2.913
			c3.266-3.266,9.181-3.266,12.535,0c0.794,0.883,1.412,1.854,1.854,2.913c0.53,1.059,0.706,2.207,0.706,3.354
			c0,2.383-0.883,4.59-2.56,6.268c-0.883,0.794-1.854,1.412-2.913,1.854C205.33,233.746,204.182,233.931,203.034,233.931"/>
		<path style="fill:#13A085;" d="M70.621,233.931c-2.383,0-4.59-0.892-6.268-2.56c-0.794-0.892-1.412-1.854-1.854-2.913
			c-0.441-1.059-0.706-2.207-0.706-3.354c0-1.148,0.265-2.295,0.706-3.354c0.441-1.059,1.059-2.03,1.854-2.913
			c2.472-2.383,6.444-3.178,9.622-1.854c1.059,0.441,2.03,1.059,2.913,1.854c0.794,0.883,1.412,1.854,1.854,2.913
			c0.441,1.059,0.706,2.207,0.706,3.354c0,2.383-0.883,4.59-2.56,6.268C75.211,233.039,73.004,233.931,70.621,233.931"/>
		<path style="fill:#13A085;" d="M344.276,189.793h-44.138c-4.873,0-8.828-3.946-8.828-8.828s3.955-8.828,8.828-8.828h44.138
			c4.873,0,8.828,3.946,8.828,8.828S349.149,189.793,344.276,189.793"/>
	</g>
	<path style="fill:#4482C3;" d="M459.034,189.793h-44.138c-4.882,0-8.828-3.946-8.828-8.828s3.946-8.828,8.828-8.828h44.138
		c4.882,0,8.828,3.946,8.828,8.828S463.916,189.793,459.034,189.793"/>
	<path style="fill:#F0C419;" d="M379.586,189.793c-2.383,0-4.59-0.892-6.268-2.56c-1.677-1.677-2.56-3.884-2.56-6.268
		c0-2.295,0.971-4.599,2.56-6.268c3.266-3.266,9.269-3.266,12.535,0c1.589,1.668,2.56,3.972,2.56,6.268
		c0,2.383-0.883,4.59-2.56,6.268C384.177,188.902,381.97,189.793,379.586,189.793"/>
	<path style="fill:#4482C3;" d="M97.103,278.069H52.966c-4.873,0-8.828-3.946-8.828-8.828c0-4.882,3.955-8.828,8.828-8.828h44.138
		c4.873,0,8.828,3.946,8.828,8.828C105.931,274.123,101.976,278.069,97.103,278.069"/>
	<path style="fill:#F0C419;" d="M229.517,278.069h-61.793c-4.873,0-8.828-3.946-8.828-8.828c0-4.882,3.955-8.828,8.828-8.828h61.793
		c4.873,0,8.828,3.946,8.828,8.828C238.345,274.123,234.39,278.069,229.517,278.069"/>
	<g>
		<path style="fill:#C03A2B;" d="M132.414,278.069c-2.383,0-4.59-0.892-6.268-2.56c-1.677-1.677-2.56-3.884-2.56-6.268
			c0-2.295,0.971-4.599,2.56-6.268c3.266-3.266,9.269-3.266,12.535,0c1.589,1.668,2.56,3.972,2.56,6.268
			c0,2.383-0.883,4.59-2.56,6.268C137.004,277.177,134.797,278.069,132.414,278.069"/>
		<path style="fill:#C03A2B;" d="M264.828,278.069c-2.383,0-4.59-0.892-6.268-2.56c-0.794-0.892-1.412-1.854-1.854-2.913
			c-0.441-1.059-0.706-2.207-0.706-3.354c0-2.295,0.971-4.599,2.56-6.268c3.266-3.266,9.269-3.266,12.535,0
			c1.589,1.668,2.56,3.972,2.56,6.268c0,2.383-0.883,4.59-2.56,6.268C269.418,277.177,267.211,278.069,264.828,278.069"/>
	</g>
	<path style="fill:#4482C3;" d="M344.276,278.069h-44.138c-4.873,0-8.828-3.946-8.828-8.828c0-4.882,3.955-8.828,8.828-8.828h44.138
		c4.873,0,8.828,3.946,8.828,8.828C353.103,274.123,349.149,278.069,344.276,278.069"/>
	<path style="fill:#F0C419;" d="M459.034,278.069h-44.138c-4.882,0-8.828-3.946-8.828-8.828c0-4.882,3.946-8.828,8.828-8.828h44.138
		c4.882,0,8.828,3.946,8.828,8.828C467.862,274.123,463.916,278.069,459.034,278.069"/>
	<g>
		<path style="fill:#C03A2B;" d="M379.586,278.069c-2.383,0-4.59-0.892-6.268-2.56c-1.677-1.677-2.56-3.884-2.56-6.268
			c0-2.295,0.971-4.599,2.56-6.268c3.266-3.266,9.269-3.266,12.535,0c1.589,1.668,2.56,3.972,2.56,6.268
			c0,2.383-0.883,4.59-2.56,6.268C384.177,277.177,381.97,278.069,379.586,278.069"/>
		<path style="fill:#C03A2B;" d="M414.897,233.931h-61.793c-4.873,0-8.828-3.946-8.828-8.828c0-4.882,3.955-8.828,8.828-8.828
			h61.793c4.882,0,8.828,3.946,8.828,8.828C423.724,229.985,419.778,233.931,414.897,233.931"/>
	</g>
	<g>
		<path style="fill:#13A085;" d="M450.207,233.931c-2.383,0-4.59-0.892-6.268-2.56c-0.803-0.892-1.412-1.854-1.854-2.913
			c-0.45-1.059-0.706-2.207-0.706-3.354c0-1.148,0.256-2.295,0.706-3.354c0.441-1.059,1.05-2.03,1.854-2.913
			c3.266-3.266,9.181-3.266,12.535,0c0.794,0.883,1.404,1.854,1.854,2.913c0.53,1.059,0.706,2.207,0.706,3.354
			c0,2.383-0.883,4.59-2.56,6.268c-0.892,0.794-1.854,1.412-2.913,1.854C452.502,233.746,451.354,233.931,450.207,233.931"/>
		<path style="fill:#13A085;" d="M317.793,233.931c-2.383,0-4.59-0.892-6.268-2.56c-0.794-0.892-1.412-1.854-1.854-2.913
			c-0.441-1.059-0.706-2.207-0.706-3.354c0-1.148,0.265-2.295,0.706-3.354c0.441-1.059,1.059-2.03,1.854-2.913
			c2.472-2.383,6.444-3.178,9.622-1.854c1.059,0.441,2.03,1.059,2.913,1.854c0.794,0.883,1.412,1.854,1.854,2.913
			c0.441,1.059,0.706,2.207,0.706,3.354c0,2.383-0.883,4.59-2.56,6.268C322.383,233.039,320.177,233.931,317.793,233.931"/>
	</g>
</g>
</svg>